<mxfile host="app.diagrams.net" modified="2023-07-24T17:28:51.256Z" agent="Mozilla/5.0 (Windows NT 10.0; Win64; x64) AppleWebKit/537.36 (KHTML, like Gecko) Chrome/114.0.0.0 Safari/537.36" version="21.6.5" etag="scqStrkuKuDkg7lR72T5" type="github">
  <diagram name="Page-1" id="lK-sITBU5b6j4ZyMU-jR">
    <mxGraphModel>
      <root>
        <mxCell id="0" />
        <mxCell id="1" parent="0" />
      </root>
    </mxGraphModel>
  </diagram>
</mxfile>
